<?xml version="1.0" standalone="no"?><!DOCTYPE svg PUBLIC "-//W3C//DTD SVG 1.1//EN" "http://www.w3.org/Graphics/SVG/1.1/DTD/svg11.dtd"><svg t="1544757964770" class="icon" style="" viewBox="0 0 1024 1024" version="1.1" xmlns="http://www.w3.org/2000/svg" p-id="2385" xmlns:xlink="http://www.w3.org/1999/xlink" width="200" height="200"><defs><style type="text/css"></style></defs><path d="M785.139 399.337c-18.595 10.735-42.397 4.316-53.168-14.33700001-10.77-18.653-4.427-42.479 14.168-53.21299999l156.099-90.123c18.595-10.736 42.39799999-4.317 53.169 14.336 10.77 18.653 4.426 42.479-14.169 53.214l-156.099 90.123z" fill="#b6b6b6" p-id="2386"></path><path d="M121.764 782.336c-18.594 10.73500001-42.39799999 4.317-53.169-14.336-10.77-18.653-4.426-42.479 14.16799999-53.214l156.09900001-90.124c18.594-10.73500001 42.398-4.316 53.168 14.337 10.77 18.653 4.426 42.478-14.168 53.213l-156.098 90.124z" fill="#949494" p-id="2387"></path><path d="M624.663 785.139c-10.73500001-18.594-4.316-42.398 14.33700001-53.168 18.653-10.77 42.479-4.426 53.21299999 14.168l90.12400001 156.098c10.73500001 18.594 4.316 42.399-14.33700001 53.168-18.653 10.77-42.479 4.426-53.213-14.168l-90.124-156.098z" fill="#a3a3a3" p-id="2388"></path><path d="M241.664 121.764c-10.736-18.594-4.317-42.39799999 14.336-53.169 18.654-10.77 42.479-4.426 53.214 14.169l90.123 156.099c10.73500001 18.594 4.316 42.397-14.337 53.168-18.654 10.77-42.479 4.426-53.213-14.168l-90.123-156.099z" fill="#c8c8c8" p-id="2389"></path><path d="M746.139 692.213c-18.59500001-10.734-24.938-34.56-14.168-53.21299999 10.771-18.653 34.573-25.072 53.168-14.33600001l156.099 90.123c18.59500001 10.734 24.938 34.56 14.169 53.213-10.771 18.653-34.574 25.072-53.169 14.336l-156.099-90.123z" fill="#a9a9a9" p-id="2390"></path><path d="M82.764 309.214c-18.594-10.73500001-24.93799999-34.561-14.169-53.214 10.771-18.653 34.575-25.072 53.168-14.33700001l156.099 90.12300001c18.594 10.73500001 24.93799999 34.561 14.168 53.214-10.771 18.653-34.574 25.072-53.168 14.337l-156.098-90.123z" fill="#cdcdcd" p-id="2391"></path><path d="M331.787 746.139c10.73500001-18.594 34.56-24.938 53.21299999-14.168s25.072 34.574 14.33600001 53.168L309.213 941.237C298.478 959.831 274.653 966.175 256 955.405c-18.653-10.771-25.072-34.574-14.336-53.168l90.123-156.098z" fill="#999999" p-id="2392"></path><path d="M714.786 82.764c10.734-18.59500001 34.561-24.93799999 53.214-14.169 18.653 10.771 25.072 34.574 14.337 53.169l-90.123 156.099C681.47899999 296.456 657.653 302.80000001 639 292.03c-18.653-10.771-25.072-34.574-14.337-53.168l90.123-156.098z" fill="#bbbbbb" p-id="2393"></path><path d="M473 804.877c0-21.471 17.461-38.877 39-38.877s39 17.406 39 38.877L551 985.123C551 1006.594 533.539 1024 512 1024s-39-17.406-39-38.877l0-180.246z" fill="#9D9d9D" p-id="2394"></path><path d="M473 38.877c0-21.471 17.461-38.877 39-38.877s39 17.406 39 38.877L551 219.123c0 21.471-17.461 38.877-39 38.877s-39-17.406-39-38.877l0-180.246z" fill="#c2c2c2" p-id="2395"></path><path d="M219.123 473c21.471 0 38.877 17.461 38.877 39s-17.406 39-38.877 39L38.877 551c-21.471 0-38.877-17.461-38.877-39s17.406-39 38.877-39l180.246 0z" fill="#d1d1d1" p-id="2396"></path><path d="M985.123 473c21.471 0 38.877 17.461 38.877 39s-17.406 39-38.877 39L804.877 551c-21.471 0-38.877-17.461-38.877-39s17.406-39 38.877-39l180.246 0z" fill="#afafaf" p-id="2397"></path></svg>